<?xml version="1.0" encoding="UTF-8"?>
<svg id="Lager_1" data-name="Lager 1" xmlns="http://www.w3.org/2000/svg" viewBox="0 0 545.11 193.84">
  <defs>
    <style>
      .cls-1 {
        fill: #4b88f2;
      }
    </style>
  </defs>
  <g>
    <path class="cls-1" d="m67.92,60.88c-13.56,0-26.14,3.46-36.7,9.72V15.89s0-.05,0-.07C31.22,7.08,24.24,0,15.62,0H.02v15.82h-.02v111.54h.02C.02,167.2,30.2,193.84,67.92,193.84s67.9-26.64,67.9-66.48-30.18-66.48-67.9-66.48Zm0,104.47c-22.89,0-36.68-18.2-36.68-37.99s13.79-37.99,36.68-37.99,36.68,18.2,36.68,37.99-13.79,37.99-36.68,37.99Z"/>
    <path class="cls-1" d="m463.23,0h-15.6v15.36h-.08v162.66h0c0,8.74,6.99,15.82,15.6,15.82h15.6s0-7.08,0-15.82h0V17.16c.04-.44.07-.89.07-1.34,0-8.74-6.99-15.82-15.6-15.82Z"/>
    <path class="cls-1" d="m521.26,60.88h-15.6v15.82h0v101.32h0c0,8.74,6.99,15.82,15.6,15.82h15.6v-15.82h0v-101.32h0c0-8.74-6.99-15.82-15.6-15.82Z"/>
    <path class="cls-1" d="m213,60.88c-37.72,0-67.9,26.65-67.9,66.48s30.18,66.48,67.9,66.48,67.9-26.64,67.9-66.48-30.18-66.48-67.9-66.48Zm0,104.47c-22.89,0-36.68-18.2-36.68-37.99s13.79-37.99,36.68-37.99,36.68,18.2,36.68,37.99-13.79,37.99-36.68,37.99Z"/>
    <path class="cls-1" d="m360.11,60.88c-37.72,0-67.9,26.65-67.9,66.48s30.18,66.48,67.9,66.48,67.9-26.64,67.9-66.48-30.18-66.48-67.9-66.48Zm0,104.47c-22.89,0-36.68-18.2-36.68-37.99s13.79-37.99,36.68-37.99,36.68,18.2,36.68,37.99-13.79,37.99-36.68,37.99Z"/>
  </g>
  <circle class="cls-1" cx="521.26" cy="23.86" r="23.86"/>
</svg>