<svg width="61" height="73" viewBox="0 0 61 73" fill="none" xmlns="http://www.w3.org/2000/svg">
<path d="M0.20459 72.7273V0H31.5966C36.9944 0 41.7174 0.982481 45.7657 2.94744C49.814 4.91241 52.9626 7.74148 55.2117 11.4347C57.4607 15.1278 58.5853 19.5549 58.5853 24.7159C58.5853 29.9242 57.4252 34.3158 55.1052 37.8906C52.8088 41.4654 49.5772 44.1643 45.4106 45.9872C41.2676 47.8101 36.4262 48.7216 30.8864 48.7216H12.1364V33.3807L13.5 31.2273C15.8201 31.2273 11.8665 28.7954 13.5 28.2273C15.1572 27.6354 18.1993 35.7555 17.5 26.7273C16.8373 18.1719 15.5 25.7869 15.5 23.7273C15.5 21.6439 14.5 18.2273 14.5 18.2273C14.5 18.2273 17.1572 14.8428 15.5 14.2273C13.8665 13.5881 29.2292 15.767 26.9091 15.767L24 24.7159L19.9489 72.7273H0.20459ZM42.8182 39.3466L61 72.7273H19.0171L19.9489 48.7216L42.8182 39.3466Z" fill="#5ADF92"/>
</svg>
